<?xml version="1.0" encoding="UTF-8"?>
<!-- Generator: visioncortex VTracer 0.6.12 -->
<svg version="1.1" xmlns="http://www.w3.org/2000/svg" width="1280" height="1280">
<path d="M0 0 C422.4 0 844.8 0 1280 0 C1280 422.4 1280 844.8 1280 1280 C857.6 1280 435.2 1280 0 1280 C0 857.6 0 435.2 0 0 Z M585 26 C584.68 26.03 584.68 26.03 583.05 26.18 C513.86 32.74 446.09 50.87 383 80 C382.49 80.24 381.97 80.47 381.44 80.72 C335.72 101.83 293.26 128.47 254 160 C253.53 160.37 253.06 160.75 252.58 161.13 C233.85 176.14 216.42 192.5 199.44 209.44 C199.18 209.69 199.18 209.69 197.87 211 C192.02 216.83 186.36 222.72 181 229 C180.23 229.86 179.45 230.73 178.66 231.58 C173.66 237.05 168.89 242.67 164.25 248.45 C162.92 250.1 161.59 251.73 160.26 253.36 C140.45 277.74 122.64 303.76 107 331 C106.79 331.37 106.79 331.37 105.72 333.22 C102.74 338.44 99.85 343.71 97 349 C96.53 349.87 96.06 350.74 95.58 351.64 C64.19 410.01 42.65 473.92 25 598 C24.95 598.66 24.91 599.32 24.86 600 C23.94 613.23 23.8 626.44 23.81 639.69 C23.81 640.22 23.81 640.76 23.81 641.31 C23.82 659.6 24.24 677.78 26 696 C26.03 696.32 26.03 696.32 26.18 697.95 C32.74 767.14 50.87 834.91 80 898 C80.12 898.26 80.12 898.26 80.72 899.56 C101.83 945.28 128.47 987.74 160 1027 C160.37 1027.47 160.75 1027.94 161.13 1028.42 C176.14 1047.15 192.5 1064.58 209.44 1081.56 C209.95 1082.08 210.47 1082.6 211 1083.13 C216.83 1088.98 222.72 1094.64 229 1100 C229.86 1100.77 230.73 1101.55 231.58 1102.34 C237.05 1107.34 242.67 1112.11 248.45 1116.75 C250.1 1118.08 251.73 1119.41 253.36 1120.74 C277.74 1140.55 303.76 1158.36 331 1174 C331.73 1174.42 332.47 1174.84 333.22 1175.28 C338.44 1178.26 343.71 1181.15 349 1184 C349.87 1184.47 350.74 1184.94 351.64 1185.42 C410.01 1216.81 473.92 1238.35 598 1256 C598.33 1256.02 598.33 1256.02 600 1256.14 C613.23 1257.06 626.44 1257.2 639.69 1257.19 C639.96 1257.19 639.96 1257.19 641.31 1257.19 C659.6 1257.18 677.78 1256.76 696 1255 C696.32 1254.97 696.32 1254.97 697.95 1254.82 C767.14 1248.26 834.91 1230.13 898 1201 C898.51 1200.76 899.03 1200.53 899.56 1200.28 C945.28 1179.17 987.74 1152.53 1027 1121 C1027.47 1120.63 1027.94 1120.25 1028.42 1119.87 C1047.15 1104.86 1064.58 1088.5 1081.56 1071.56 C1082.08 1071.05 1082.6 1070.53 1083.13 1070 C1088.98 1064.17 1094.64 1058.28 1100 1052 C1100.77 1051.14 1101.55 1050.27 1102.34 1049.42 C1107.34 1043.95 1112.11 1038.33 1116.75 1032.55 C1118.08 1030.9 1119.41 1029.27 1120.74 1027.64 C1140.55 1003.26 1158.36 977.24 1174 950 C1174.42 949.27 1174.84 948.53 1175.28 947.78 C1178.26 942.56 1181.15 937.29 1184 932 C1184.47 931.13 1184.94 930.26 1185.42 929.36 C1216.81 870.99 1238.35 807.08 1256 683 C1256.02 682.67 1256.02 682.67 1256.14 681 C1257.06 667.77 1257.2 654.56 1257.19 641.31 C1257.19 640.78 1257.19 640.24 1257.19 639.69 C1257.18 621.4 1256.76 603.22 1255 585 C1254.97 584.68 1254.97 584.68 1254.82 583.05 C1248.26 513.86 1230.13 446.09 1201 383 C1200.76 382.49 1200.53 381.97 1200.28 381.44 C1179.17 335.72 1152.53 293.26 1121 254 C1120.63 253.53 1120.25 253.06 1119.87 252.58 C1104.86 233.85 1088.5 216.42 1071.56 199.44 C1071.05 198.92 1070.53 198.4 1070 197.87 C1064.17 192.02 1058.28 186.36 1052 181 C1051.14 180.23 1050.27 179.45 1049.42 178.66 C1043.95 173.66 1038.33 168.89 1032.55 164.25 C1030.9 162.92 1029.27 161.59 1027.64 160.26 C1003.26 140.45 977.24 122.64 950 107 C949.63 106.79 949.63 106.79 947.78 105.72 C942.56 102.74 937.29 99.85 932 97 C931.13 96.53 930.26 96.06 929.36 95.58 C870.99 64.19 807.08 42.65 683 25 C682.34 24.95 681.68 24.91 681 24.86 C667.77 23.94 654.56 23.8 641.31 23.81 C640.78 23.81 640.24 23.81 639.69 23.81 C621.4 23.82 603.22 24.24 585 26 Z " fill="#000000" transform="translate(0,0)"/>
<path d="M0 0 C0.32 0.03 0.32 0.03 1.96 0.19 C46.24 4.53 89.65 13.34 132 27 C132.6 27.19 133.2 27.38 133.81 27.58 C163.94 37.28 192.74 49.81 221 64 C221.53 64.27 222.06 64.53 222.6 64.8 C254.53 80.82 284.67 100.27 313 122 C313.64 122.49 314.28 122.98 314.93 123.48 C326.26 132.17 337.17 141.34 347.73 150.95 C349.83 152.86 351.97 154.71 354.12 156.56 C357.5 159.5 360.65 162.6 363.75 165.81 C365.67 167.75 367.73 169.5 369.8 171.28 C373.87 174.81 377.54 178.6 381.19 182.56 C381.51 182.91 381.51 182.91 383.13 184.66 C384.45 186.08 385.77 187.5 387.08 188.93 C388.89 190.88 390.71 192.83 392.54 194.77 C398.55 201.14 404.32 207.62 409.77 214.47 C411.15 216.18 412.55 217.88 413.95 219.57 C426.31 234.53 437.54 250.13 448.31 266.25 C448.73 266.87 449.15 267.49 449.57 268.13 C455.32 276.73 460.78 285.46 466.04 294.37 C466.88 295.79 467.72 297.21 468.57 298.63 C504.74 359.38 528.86 427.5 548 548 C548.03 548.3 548.03 548.3 548.18 549.84 C551.68 585.11 551.52 621.74 548 657 C547.94 657.65 547.87 658.29 547.81 658.96 C543.47 703.24 534.66 746.65 521 789 C520.81 789.6 520.62 790.2 520.42 790.81 C510.72 820.94 498.19 849.74 484 878 C483.73 878.53 483.47 879.06 483.2 879.6 C467.18 911.53 447.73 941.67 426 970 C425.51 970.64 425.02 971.28 424.52 971.93 C415.83 983.26 406.66 994.17 397.05 1004.73 C395.14 1006.83 393.29 1008.97 391.44 1011.12 C388.5 1014.5 385.4 1017.65 382.19 1020.75 C380.25 1022.67 378.5 1024.73 376.72 1026.8 C373.19 1030.87 369.4 1034.54 365.44 1038.19 C365.09 1038.51 365.09 1038.51 363.34 1040.13 C361.92 1041.45 360.5 1042.77 359.07 1044.08 C357.12 1045.89 355.17 1047.71 353.23 1049.54 C346.86 1055.55 340.38 1061.32 333.53 1066.77 C331.82 1068.15 330.12 1069.55 328.43 1070.95 C313.47 1083.31 297.87 1094.54 281.75 1105.31 C281.13 1105.73 280.51 1106.15 279.87 1106.57 C271.27 1112.32 262.54 1117.78 253.63 1123.04 C252.21 1123.88 250.79 1124.72 249.37 1125.57 C188.62 1161.74 120.5 1185.86 0 1205 C-0.3 1205.03 -0.3 1205.03 -1.84 1205.18 C-37.11 1208.68 -73.74 1208.52 -109 1205 C-109.65 1204.94 -110.29 1204.87 -110.96 1204.81 C-155.24 1200.47 -198.65 1191.66 -241 1178 C-241.6 1177.81 -242.2 1177.62 -242.81 1177.42 C-272.94 1167.72 -301.74 1155.19 -330 1141 C-330.53 1140.73 -331.06 1140.47 -331.6 1140.2 C-363.53 1124.18 -393.67 1104.73 -422 1083 C-422.32 1082.76 -422.32 1082.76 -423.93 1081.52 C-435.26 1072.83 -446.17 1063.66 -456.73 1054.05 C-458.83 1052.14 -460.97 1050.29 -463.12 1048.44 C-466.5 1045.5 -469.65 1042.4 -472.75 1039.19 C-474.67 1037.25 -476.73 1035.5 -478.8 1033.72 C-482.87 1030.19 -486.54 1026.4 -490.19 1022.44 C-490.83 1021.75 -491.47 1021.05 -492.13 1020.34 C-493.45 1018.92 -494.77 1017.5 -496.08 1016.07 C-497.89 1014.12 -499.71 1012.17 -501.54 1010.23 C-507.55 1003.86 -513.32 997.38 -518.77 990.53 C-520.15 988.82 -521.55 987.12 -522.95 985.43 C-535.31 970.47 -546.54 954.87 -557.31 938.75 C-557.73 938.13 -558.15 937.51 -558.57 936.87 C-564.32 928.27 -569.78 919.54 -575.04 910.63 C-575.88 909.21 -576.72 907.79 -577.57 906.37 C-613.74 845.62 -637.86 777.5 -657 657 C-657.06 656.39 -657.12 655.79 -657.18 655.16 C-660.68 619.89 -660.52 583.26 -657 548 C-656.97 547.68 -656.97 547.68 -656.81 546.04 C-652.47 501.76 -643.66 458.35 -630 416 C-629.81 415.4 -629.62 414.8 -629.42 414.19 C-619.72 384.06 -607.19 355.26 -593 327 C-592.73 326.47 -592.47 325.94 -592.2 325.4 C-576.18 293.47 -556.73 263.33 -535 235 C-534.51 234.36 -534.02 233.72 -533.52 233.07 C-524.83 221.74 -515.66 210.83 -506.05 200.27 C-504.14 198.17 -502.29 196.03 -500.44 193.88 C-497.5 190.5 -494.4 187.35 -491.19 184.25 C-489.25 182.33 -487.5 180.27 -485.72 178.2 C-482.19 174.13 -478.4 170.46 -474.44 166.81 C-473.75 166.17 -473.05 165.53 -472.34 164.87 C-470.92 163.55 -469.5 162.23 -468.07 160.92 C-466.12 159.11 -464.17 157.29 -462.23 155.46 C-455.86 149.45 -449.38 143.68 -442.53 138.23 C-440.82 136.85 -439.12 135.45 -437.43 134.05 C-422.47 121.69 -406.87 110.46 -390.75 99.69 C-390.13 99.27 -389.51 98.85 -388.87 98.43 C-380.27 92.68 -371.54 87.22 -362.63 81.96 C-361.21 81.12 -359.79 80.28 -358.37 79.43 C-297.62 43.26 -229.5 19.14 -109 0 C-108.39 -0.06 -107.79 -0.12 -107.16 -0.18 C-71.89 -3.68 -35.26 -3.52 0 0 Z M-350 100 C-350.22 100.13 -350.22 100.13 -351.32 100.79 C-379.21 117.41 -405.61 136.33 -430.38 157.31 C-430.92 157.77 -431.46 158.23 -432.01 158.7 C-436.33 162.38 -440.54 166.17 -444.69 170.03 C-447.27 172.43 -449.89 174.76 -452.57 177.05 C-457.92 181.71 -462.9 186.75 -467.9 191.77 C-469.56 193.43 -471.22 195.09 -472.89 196.75 C-478.48 202.34 -483.88 207.98 -489 214 C-489.77 214.86 -490.55 215.73 -491.34 216.58 C-521.61 249.67 -546.68 287.65 -568 327 C-568.46 327.85 -568.93 328.7 -569.4 329.58 C-601.07 387.94 -621.62 452.43 -634 539 C-634.04 539.35 -634.04 539.35 -634.23 541.13 C-641.67 612.03 -635.85 683.6 -557 898 C-556.74 898.44 -556.48 898.87 -556.21 899.32 C-539.59 927.21 -520.67 953.61 -499.69 978.38 C-499.23 978.92 -498.77 979.46 -498.3 980.01 C-494.62 984.33 -490.83 988.54 -486.97 992.69 C-484.57 995.27 -482.24 997.89 -479.95 1000.57 C-475.29 1005.92 -470.25 1010.9 -465.23 1015.9 C-463.57 1017.56 -461.91 1019.22 -460.25 1020.89 C-454.66 1026.48 -449.02 1031.88 -443 1037 C-442.14 1037.77 -441.27 1038.55 -440.42 1039.34 C-407.33 1069.61 -369.35 1094.68 -330 1116 C-329.15 1116.46 -328.3 1116.93 -327.42 1117.4 C-269.06 1149.07 -204.57 1169.62 -118 1182 C-117.65 1182.04 -117.65 1182.04 -115.87 1182.23 C-44.97 1189.67 26.6 1183.85 241 1105 C241.44 1104.74 241.87 1104.48 242.32 1104.21 C270.21 1087.59 296.61 1068.67 321.38 1047.69 C321.92 1047.23 322.46 1046.77 323.01 1046.3 C327.33 1042.62 331.54 1038.83 335.69 1034.97 C338.27 1032.57 340.89 1030.24 343.57 1027.95 C348.92 1023.29 353.9 1018.25 358.9 1013.23 C360.56 1011.57 362.22 1009.91 363.89 1008.25 C369.48 1002.66 374.88 997.02 380 991 C380.77 990.14 381.55 989.27 382.34 988.42 C412.61 955.33 437.68 917.35 459 878 C459.46 877.15 459.93 876.3 460.4 875.42 C492.07 817.06 512.62 752.57 525 666 C525.04 665.65 525.04 665.65 525.23 663.87 C532.67 592.97 526.85 521.4 448 307 C447.87 306.78 447.87 306.78 447.21 305.68 C430.59 277.79 411.67 251.39 390.69 226.62 C390.46 226.35 390.46 226.35 389.3 224.99 C385.62 220.67 381.83 216.46 377.97 212.31 C375.57 209.73 373.24 207.11 370.95 204.43 C366.29 199.08 361.25 194.1 356.23 189.1 C354.57 187.44 352.91 185.78 351.25 184.11 C345.66 178.52 340.02 173.12 334 168 C333.14 167.23 332.27 166.45 331.42 165.66 C298.33 135.39 260.35 110.32 221 89 C220.15 88.54 219.3 88.07 218.42 87.6 C160.06 55.93 95.57 35.38 9 23 C8.65 22.96 8.65 22.96 6.87 22.77 C-64.03 15.33 -135.6 21.15 -350 100 Z " fill="#000000" transform="translate(695,38)"/>
<path d="M0 0 C0.64 0.06 1.27 0.13 1.93 0.19 C49.29 4.93 95.27 15.39 140.11 31.33 C141.86 31.95 143.6 32.56 145.35 33.17 C188.55 48.18 230.46 69.91 268 96 C268.66 96.45 269.32 96.91 270 97.38 C289.73 111.01 309.05 125.54 326.69 141.82 C328.37 143.33 330.08 144.82 331.79 146.3 C335.9 149.89 339.9 153.58 343.88 157.31 C344.57 157.97 345.26 158.62 345.98 159.29 C353.29 166.19 360.49 173.1 367.03 180.75 C369.08 183.09 371.18 185.36 373.31 187.63 C378.71 193.42 383.88 199.31 388.8 205.5 C390.1 207.13 391.42 208.74 392.73 210.35 C404.62 224.99 415.79 240.15 426 256 C426.46 256.71 426.92 257.42 427.4 258.15 C452.32 296.67 472.72 337.74 488 381 C488.21 381.6 488.42 382.2 488.64 382.82 C504.01 426.53 513.44 471.94 518 518 C518.06 518.6 518.12 519.21 518.18 519.83 C521.61 554.47 521.47 590.37 518 625 C517.94 625.64 517.87 626.27 517.81 626.93 C513.07 674.29 502.61 720.27 486.67 765.11 C486.05 766.86 485.44 768.6 484.83 770.35 C469.82 813.55 448.09 855.46 422 893 C421.55 893.66 421.09 894.32 420.62 895 C406.99 914.73 392.46 934.05 376.18 951.69 C374.67 953.37 373.18 955.08 371.7 956.79 C368.11 960.9 364.42 964.9 360.69 968.88 C360.03 969.57 359.38 970.26 358.71 970.98 C351.81 978.29 344.9 985.49 337.25 992.03 C334.91 994.08 332.64 996.18 330.37 998.31 C324.58 1003.71 318.69 1008.88 312.5 1013.8 C310.87 1015.1 309.26 1016.42 307.65 1017.73 C293.01 1029.62 277.85 1040.79 262 1051 C261.29 1051.46 260.58 1051.92 259.85 1052.4 C221.33 1077.32 180.26 1097.72 137 1113 C136.4 1113.21 135.8 1113.42 135.18 1113.64 C91.47 1129.01 46.06 1138.44 0 1143 C-0.6 1143.06 -1.21 1143.12 -1.83 1143.18 C-36.47 1146.61 -72.37 1146.47 -107 1143 C-107.64 1142.94 -108.27 1142.87 -108.93 1142.81 C-156.29 1138.07 -202.27 1127.61 -247.11 1111.67 C-248.86 1111.05 -250.6 1110.44 -252.35 1109.83 C-295.55 1094.82 -337.46 1073.09 -375 1047 C-375.66 1046.55 -376.32 1046.09 -377 1045.62 C-396.73 1031.99 -416.05 1017.46 -433.69 1001.18 C-435.37 999.67 -437.08 998.18 -438.79 996.7 C-442.9 993.11 -446.9 989.42 -450.88 985.69 C-451.22 985.36 -451.22 985.36 -452.98 983.71 C-460.29 976.81 -467.49 969.9 -474.03 962.25 C-476.08 959.91 -478.18 957.64 -480.31 955.37 C-485.71 949.58 -490.88 943.69 -495.8 937.5 C-497.1 935.87 -498.42 934.26 -499.73 932.65 C-511.62 918.01 -522.79 902.85 -533 887 C-533.46 886.29 -533.92 885.58 -534.4 884.85 C-559.32 846.33 -579.72 805.26 -595 762 C-595.21 761.4 -595.42 760.8 -595.64 760.18 C-611.01 716.47 -620.44 671.06 -625 625 C-625.03 624.7 -625.03 624.7 -625.18 623.17 C-628.61 588.53 -628.47 552.63 -625 518 C-624.94 517.36 -624.87 516.73 -624.81 516.07 C-620.07 468.71 -609.61 422.73 -593.67 377.89 C-593.05 376.14 -592.44 374.4 -591.83 372.65 C-576.82 329.45 -555.09 287.54 -529 250 C-528.55 249.34 -528.09 248.68 -527.62 248 C-513.99 228.27 -499.46 208.95 -483.18 191.31 C-481.67 189.63 -480.18 187.92 -478.7 186.21 C-475.11 182.1 -471.42 178.1 -467.69 174.12 C-467.03 173.43 -466.38 172.74 -465.71 172.02 C-458.81 164.71 -451.9 157.51 -444.25 150.97 C-441.91 148.92 -439.64 146.82 -437.37 144.69 C-431.58 139.29 -425.69 134.12 -419.5 129.2 C-417.87 127.9 -416.26 126.58 -414.65 125.27 C-400.01 113.38 -384.85 102.21 -369 92 C-368.29 91.54 -367.58 91.08 -366.85 90.6 C-328.33 65.68 -287.26 45.28 -244 30 C-243.4 29.79 -242.8 29.58 -242.18 29.36 C-198.47 13.99 -153.06 4.56 -107 0 C-106.7 -0.03 -106.7 -0.03 -105.17 -0.18 C-70.53 -3.61 -34.63 -3.47 0 0 Z M-239 165 C-239.93 165.43 -240.87 165.85 -241.81 166.27 C-256.66 173.01 -270.75 180.75 -284.69 189.21 C-285.92 189.95 -287.15 190.69 -288.38 191.44 C-312.7 206.14 -335.06 223.82 -356 243 C-356.51 243.47 -357.02 243.93 -357.55 244.41 C-376.76 261.93 -376.76 261.93 -379.32 266.2 C-381.48 268.51 -382.83 268.54 -385.88 268.71 C-386.48 268.72 -387.07 268.74 -387.69 268.75 C-388.29 268.78 -388.9 268.81 -389.53 268.84 C-391.02 268.91 -392.51 268.96 -394 269 C-394 269.77 -394 270.54 -394 271.34 C-394 282.25 -394 282.25 -396.35 285.03 C-396.87 285.64 -397.38 286.26 -397.91 286.9 C-398.19 287.23 -398.19 287.23 -399.62 288.94 C-411.43 303.25 -422.27 318.2 -432 334 C-432.5 334.82 -433.01 335.64 -433.53 336.48 C-469.11 394.55 -490.74 458.64 -487.98 676.56 C-481.42 703.69 -472.52 730.32 -460.65 755.61 C-459.96 757.08 -459.28 758.55 -458.6 760.02 C-457.16 763.1 -455.71 766.18 -454.25 769.25 C-454.03 769.72 -453.81 770.18 -453.58 770.66 C-451.6 774.82 -449.61 778.96 -447.33 782.97 C-447.06 783.46 -446.78 783.95 -446.49 784.46 C-445.95 785.4 -445.41 786.34 -444.86 787.27 C-443.25 790.07 -442.66 791.98 -443.12 795.19 C-443.41 796.12 -443.7 797.04 -444 798 C-443.56 798.11 -443.12 798.23 -442.67 798.35 C-436.5 800.4 -434.32 804.36 -431.19 809.81 C-430.41 811.11 -429.62 812.41 -428.83 813.71 C-428.3 814.58 -427.78 815.45 -427.25 816.32 C-423.54 822.47 -419.3 828.24 -415 834 C-414.5 834.67 -414 835.35 -413.48 836.04 C-403.6 849.24 -393.14 861.84 -382 874 C-381.77 874.26 -381.77 874.26 -380.59 875.55 C-372.46 884.47 -364.32 893.28 -355.14 901.14 C-353.58 902.49 -352.06 903.86 -350.55 905.27 C-343.36 911.96 -335.8 918.04 -328 924 C-327.24 924.58 -326.48 925.17 -325.7 925.77 C-314.47 934.4 -303.09 942.59 -291 950 C-290.59 950.25 -290.59 950.25 -288.53 951.52 C-230.45 987.11 -166.37 1008.74 39.9 1008.56 C44.83 1007.36 44.83 1007.36 46.79 1006.83 C50.85 1005.79 54.09 1005.97 57.8 1007.97 C59.2 1008.98 60.6 1009.99 62 1011 C62.21 1010.43 62.42 1009.86 62.63 1009.28 C65.38 1003.71 68.46 1001.41 74.28 999.24 C77.73 998.08 81.18 996.97 84.66 995.91 C89.34 994.48 93.99 992.94 98.64 991.42 C99.56 991.13 100.47 990.83 101.41 990.53 C111.06 987.38 120.24 983.55 129.42 979.22 C131.67 978.15 133.94 977.12 136.21 976.09 C150.58 969.56 164.2 961.98 177.69 953.79 C178.92 953.05 180.15 952.31 181.38 951.56 C205.7 936.86 228.06 919.18 249 900 C249.51 899.53 250.02 899.07 250.55 898.59 C259.47 890.46 268.28 882.32 276.14 873.14 C277.49 871.58 278.86 870.06 280.27 868.55 C286.96 861.36 293.04 853.8 299 846 C299.58 845.24 300.17 844.48 300.77 843.7 C309.4 832.47 317.59 821.09 325 809 C325.25 808.59 325.25 808.59 326.52 806.53 C362.11 748.45 383.74 684.37 380.98 466.44 C374.28 438.75 365.03 411.82 353 386 C352.57 385.07 352.15 384.13 351.73 383.19 C344.99 368.34 337.25 354.25 328.79 340.31 C328.05 339.08 327.31 337.85 326.56 336.62 C311.86 312.3 294.18 289.94 275 269 C274.53 268.49 274.07 267.98 273.59 267.45 C265.46 258.53 257.32 249.72 248.14 241.86 C246.58 240.51 245.06 239.14 243.55 237.73 C236.36 231.04 228.8 224.96 221 219 C220.62 218.71 220.62 218.71 218.7 217.23 C207.47 208.6 196.09 200.41 184 193 C183.18 192.5 182.37 192 181.53 191.48 C171.11 185.09 160.51 179.06 149.69 173.38 C149.43 173.24 149.43 173.24 148.13 172.55 C142.21 169.45 136.25 166.63 130.04 164.16 C129.46 163.93 128.89 163.7 128.3 163.46 C125.57 162.35 122.84 161.29 120.06 160.3 C114.98 158.37 111.75 156.45 109.45 151.34 C108.51 148.92 107.72 146.5 107 144 C105.66 144.46 104.31 144.93 102.97 145.39 C101.93 145.75 100.89 146.1 99.85 146.45 C96.11 147.78 96.11 147.78 95 150 C94.3 149.76 93.61 149.53 92.89 149.28 C24.17 126.11 -48.21 118.87 -239 165 Z M-594.05 523.63 C-595.87 526.26 -596.35 528.84 -596 532 C-595.11 534.27 -594 535.62 -592 537 C-589.07 538.19 -586.47 538.57 -583.47 537.4 C-580.78 535.6 -579.63 533.72 -578.94 530.56 C-578.75 527.95 -579.04 526.31 -580.5 524.12 C-582.76 521.77 -585.04 521.04 -588.25 520.81 C-590.78 521.09 -592.23 521.88 -594.05 523.63 Z M473.95 523.63 C472.13 526.26 471.65 528.84 472 532 C472.89 534.27 474 535.62 476 537 C478.93 538.19 481.53 538.57 484.53 537.4 C487.22 535.6 488.37 533.72 489.06 530.56 C489.25 527.95 488.96 526.31 487.5 524.12 C485.24 521.77 482.96 521.04 479.75 520.81 C477.22 521.09 475.77 521.88 473.95 523.63 Z " fill="#000000" transform="translate(694,69)"/>
<path d="M0 0 C0.45 0 0.45 0 2.72 0 C17.61 0.03 32.33 0.45 47.12 2.19 C47.67 2.25 48.21 2.31 48.77 2.38 C80.76 6.15 111.8 13.38 142.38 23.44 C142.89 23.6 143.4 23.77 143.92 23.94 C145.37 24.42 146.82 24.9 148.27 25.39 C149.09 25.67 149.91 25.94 150.75 26.22 C151.14 26.38 151.14 26.38 153.12 27.19 C153.91 27.51 154.7 27.82 155.51 28.15 C159.58 30.67 160.72 35.47 162.35 39.73 C162.75 40.72 163.14 41.71 163.54 42.7 C164.62 45.4 165.67 48.11 166.72 50.82 C167.85 53.7 168.99 56.58 170.13 59.45 C172.3 64.95 174.46 70.45 176.62 75.96 C179 82.04 181.4 88.12 183.8 94.2 C184.97 97.18 186.15 100.16 187.32 103.14 C187.44 103.43 187.44 103.43 188.03 104.92 C189.68 109.11 191.33 113.29 192.97 117.48 C198.67 131.97 204.4 146.45 210.2 160.9 C210.56 161.8 210.92 162.69 211.29 163.62 C211.65 164.52 212.01 165.42 212.38 166.35 C213.11 168.18 213.85 170.01 214.58 171.84 C214.76 172.29 214.76 172.29 215.69 174.6 C220.31 186.13 224.89 197.67 229.48 209.2 C231.04 213.13 232.6 217.05 234.16 220.97 C234.61 222.1 235.06 223.23 235.51 224.37 C239.01 233.16 242.51 241.96 246.01 250.75 C246.25 251.34 246.48 251.93 246.73 252.54 C248.84 257.83 250.95 263.13 253.06 268.43 C257.8 280.31 262.53 292.2 267.24 304.1 C269.47 309.73 271.71 315.35 273.95 320.97 C275.38 324.55 276.8 328.14 278.21 331.73 C279.04 333.85 279.89 335.96 280.74 338.07 C281.29 339.46 281.83 340.86 282.38 342.25 C282.7 343.05 283.02 343.85 283.36 344.67 C283.63 345.36 283.9 346.04 284.18 346.75 C284.49 347.22 284.8 347.7 285.12 348.19 C288.13 348.19 288.13 348.19 290.62 347.19 C293.12 346.19 293.12 346.19 296.12 346.19 C295.87 345.59 295.62 344.99 295.36 344.38 C288.06 326.98 281.02 309.49 274.04 291.96 C273.81 291.39 273.59 290.83 273.36 290.24 C270.53 283.15 267.72 276.07 264.9 268.98 C262.29 262.4 259.67 255.82 257.05 249.24 C256.82 248.65 256.59 248.07 256.35 247.47 C255.42 245.12 254.49 242.78 253.55 240.44 C252.17 236.95 250.78 233.47 249.4 229.98 C244.32 217.22 239.24 204.45 234.13 191.7 C228.54 177.75 222.99 163.8 217.43 149.84 C216.51 147.52 215.58 145.19 214.66 142.86 C210.62 132.72 206.59 122.58 202.56 112.44 C200.2 106.52 197.84 100.59 195.49 94.67 C194.58 92.38 193.67 90.09 192.76 87.81 C184.5 67.04 184.5 67.04 180.35 56.94 C180.07 56.28 179.8 55.62 179.52 54.94 C178.34 52.06 177.15 49.19 175.95 46.33 C175.56 45.39 175.17 44.45 174.78 43.51 C174.46 42.73 174.13 41.96 173.8 41.16 C173.12 39.19 173.12 39.19 173.12 36.19 C180.89 38.43 187.93 41.81 195.12 45.44 C195.73 45.74 196.34 46.05 196.96 46.36 C230.41 63.19 261.91 84.57 289.54 109.85 C290.95 111.14 292.37 112.4 293.82 113.64 C299.33 118.37 304.5 123.38 309.63 128.51 C311.05 129.93 312.48 131.33 313.9 132.74 C319.3 138.1 324.27 143.63 329.01 149.57 C331 152.06 333.1 154.44 335.25 156.81 C339.12 161.12 342.66 165.61 346.12 170.25 C346.44 170.67 346.75 171.09 347.08 171.52 C371.38 204.14 391.29 239.31 406.12 277.19 C406.48 278.09 406.84 279 407.2 279.93 C421.86 317.64 430.68 357.91 434.12 398.19 C434.18 398.81 434.24 399.44 434.3 400.08 C434.65 403.92 434.86 407.75 435 411.6 C435.1 413.58 435.23 415.55 435.39 417.53 C437.12 439.31 437.12 439.31 434 445.36 C431.01 448.86 427.23 450.9 423.2 453.01 C419.49 455.12 416.37 457.94 413.12 460.69 C411.77 461.8 410.42 462.9 409.06 464 C408.4 464.54 407.74 465.08 407.06 465.63 C404.13 467.99 401.16 470.31 398.19 472.62 C392.18 477.31 386.31 482.14 380.44 487 C376.05 490.62 371.62 494.19 367.12 497.69 C361.05 502.42 355.1 507.3 349.16 512.2 C344.73 515.87 340.27 519.5 335.76 523.08 C332.28 525.86 328.83 528.68 325.38 531.5 C320.35 535.59 315.3 539.64 310.19 543.62 C304.18 548.31 298.31 553.14 292.44 558 C287.5 562.08 282.49 566.07 277.43 570 C272.76 573.65 268.19 577.41 263.62 581.19 C257.82 586 251.95 590.72 246.01 595.36 C241.17 599.14 236.42 603.01 231.68 606.91 C223.58 613.57 215.45 620.18 207.19 626.62 C201.19 631.3 195.32 636.12 189.47 640.97 C184.25 645.29 178.96 649.51 173.59 653.64 C170.55 655.99 167.78 658.4 165.12 661.19 C166.77 663.5 168.42 665.81 170.12 668.19 C183.1 658.58 195.62 648.39 208.12 638.19 C216.28 631.53 224.46 624.9 232.77 618.42 C238.19 614.17 243.5 609.78 248.81 605.38 C253.75 601.29 258.76 597.31 263.82 593.37 C268.49 589.72 273.06 585.97 277.62 582.19 C283.29 577.49 289.01 572.89 294.82 568.37 C299.49 564.72 304.06 560.97 308.62 557.19 C314.43 552.38 320.3 547.65 326.24 543.02 C331.08 539.24 335.83 535.36 340.57 531.46 C348.67 524.81 356.8 518.19 365.06 511.75 C371.07 507.07 376.94 502.24 382.81 497.38 C387.75 493.3 392.76 489.31 397.81 485.37 C402.51 481.71 407.1 477.93 411.69 474.12 C416.94 469.77 422.22 465.48 427.62 461.31 C428.17 460.89 428.72 460.47 429.28 460.03 C433 457.19 433 457.19 434.12 457.19 C437.05 516.84 413.89 580.76 341.12 705.19 C340.74 705.67 340.36 706.15 339.97 706.65 C335.32 712.47 330.49 718.11 325.46 723.61 C324.17 725.01 322.91 726.43 321.67 727.88 C316.95 733.39 311.93 738.57 306.8 743.7 C305.39 745.11 303.98 746.54 302.57 747.97 C297.21 753.36 291.68 758.33 285.74 763.07 C283.25 765.06 280.87 767.17 278.5 769.31 C274.19 773.18 269.7 776.73 265.06 780.19 C264.64 780.5 264.22 780.82 263.79 781.14 C231.19 805.43 196 825.4 158.12 840.19 C157.66 840.37 157.19 840.55 156.71 840.74 C145.64 845.05 134.45 848.82 123.06 852.19 C122.55 852.34 122.03 852.5 121.5 852.65 C120.03 853.09 118.56 853.52 117.09 853.94 C116.25 854.18 115.41 854.42 114.55 854.67 C111.27 855.37 108.46 855.86 105.39 854.31 C104.87 853.89 104.34 853.48 103.8 853.05 C103.2 852.59 102.59 852.12 101.96 851.63 C101.32 851.11 100.67 850.6 100 850.06 C98.57 848.95 97.13 847.84 95.7 846.73 C94.95 846.15 94.2 845.57 93.43 844.97 C89.61 842.02 85.71 839.17 81.81 836.31 C80.61 835.43 79.4 834.54 78.19 833.65 C76.98 832.76 75.76 831.86 74.55 830.97 C70.57 828.05 66.6 825.12 62.62 822.19 C61.04 821.02 59.46 819.85 57.88 818.69 C43.62 808.19 43.62 808.19 -27.62 755.69 C-28.02 755.4 -28.02 755.4 -30 753.94 C-31.58 752.77 -33.16 751.61 -34.74 750.44 C-38.33 747.8 -41.92 745.15 -45.51 742.51 C-53.98 736.29 -62.43 730.04 -70.82 723.72 C-78.33 718.08 -85.89 712.53 -93.45 706.97 C-97.43 704.05 -101.4 701.12 -105.38 698.19 C-106.96 697.02 -108.54 695.85 -110.12 694.69 C-119.62 687.69 -119.62 687.69 -122 685.94 C-123.58 684.77 -125.16 683.61 -126.74 682.44 C-130.34 679.79 -133.94 677.14 -137.54 674.49 C-147.64 667.04 -157.75 659.6 -167.88 652.19 C-168.49 652.76 -169.11 653.34 -169.75 653.94 C-170.1 654.26 -170.45 654.59 -170.8 654.92 C-172.17 656.54 -172.98 658.28 -173.88 660.19 C-173.43 660.51 -172.98 660.83 -172.52 661.16 C-157.21 672.17 -142 683.32 -126.93 694.65 C-119.42 700.29 -111.86 705.85 -104.3 711.41 C-100.32 714.33 -96.35 717.26 -92.38 720.19 C-90.79 721.35 -89.21 722.52 -87.62 723.69 C-46.46 754.02 -5.29 784.35 35.88 814.69 C36.27 814.98 36.27 814.98 38.25 816.44 C39.83 817.6 41.41 818.77 42.99 819.93 C46.58 822.58 50.17 825.22 53.76 827.86 C61.77 833.75 69.75 839.65 77.69 845.62 C83.42 849.94 89.2 854.14 95.12 858.19 C91.48 860.34 87.86 860.94 83.75 861.62 C83.03 861.75 82.31 861.88 81.56 862 C79.23 862.41 76.9 862.8 74.56 863.19 C74.17 863.25 74.17 863.25 72.16 863.59 C60.52 865.56 48.91 867.36 37.12 868.19 C36.6 868.23 36.07 868.27 35.53 868.31 C24.1 869.18 12.71 869.39 1.25 869.38 C0.8 869.37 0.8 869.37 -1.47 869.37 C-16.36 869.35 -31.08 868.92 -45.88 867.19 C-46.42 867.12 -46.96 867.06 -47.52 867 C-74.79 863.78 -101.62 858.25 -127.88 850.19 C-128.37 850.03 -128.87 849.88 -129.39 849.72 C-180.4 834.02 -228.12 808.36 -269.88 775.19 C-270.36 774.8 -270.84 774.42 -271.33 774.03 C-277.16 769.38 -282.79 764.55 -288.29 759.52 C-289.7 758.24 -291.12 756.98 -292.57 755.73 C-298.08 751.01 -303.25 746 -308.38 740.86 C-309.8 739.45 -311.23 738.04 -312.65 736.63 C-318.05 731.27 -323.02 725.74 -327.76 719.8 C-329.75 717.31 -331.85 714.93 -334 712.57 C-337.87 708.26 -341.41 703.76 -344.88 699.12 C-345.19 698.71 -345.5 698.29 -345.82 697.87 C-351.26 690.59 -356.4 683.12 -361.44 675.56 C-361.77 675.07 -362.1 674.57 -362.44 674.06 C-364.02 671.68 -365.58 669.3 -367.11 666.9 C-368.51 664.7 -370.02 662.61 -371.62 660.55 C-373.58 657.54 -375.01 655.34 -374.58 651.67 C-374.44 651.24 -374.44 651.24 -373.76 649.05 C-373.68 648.81 -373.68 648.81 -373.32 647.6 C-372.86 646.12 -372.37 644.66 -371.88 643.19 C-371.59 642.32 -371.3 641.45 -371 640.55 C-370.07 637.85 -369.1 635.17 -368.13 632.49 C-367.76 631.47 -367.4 630.45 -367.03 629.44 C-366.25 627.26 -365.46 625.09 -364.67 622.92 C-363.41 619.41 -362.14 615.91 -360.88 612.41 C-359.55 608.72 -358.22 605.03 -356.89 601.34 C-352.46 589.06 -348.07 576.77 -343.68 564.47 C-343.06 562.74 -342.44 561.01 -341.82 559.28 C-334.89 539.87 -328 520.45 -321.11 501.03 C-313.76 480.29 -306.37 459.58 -298.94 438.87 C-298.17 436.72 -297.39 434.57 -296.62 432.42 C-296.43 431.89 -296.24 431.36 -296.04 430.81 C-293.11 422.63 -290.18 414.45 -287.27 406.27 C-286.6 404.39 -285.93 402.51 -285.26 400.63 C-281.62 390.44 -281.62 390.44 -280.09 386.12 C-274.15 369.43 -268.07 352.79 -261.88 336.19 C-262.6 336.06 -263.32 335.94 -264.06 335.81 C-266.88 335.19 -269.23 334.32 -271.88 333.19 C-275.49 341.59 -278.71 350.08 -281.73 358.71 C-282.18 360.01 -282.64 361.3 -283.09 362.6 C-284.06 365.34 -285.03 368.09 -285.99 370.84 C-288.31 377.43 -290.64 384.03 -292.97 390.62 C-293.49 392.12 -294.02 393.61 -294.55 395.1 C-299.28 408.52 -304.06 421.91 -308.87 435.29 C-310.6 440.11 -312.33 444.94 -314.07 449.76 C-314.16 450.03 -314.16 450.03 -314.65 451.39 C-319.53 464.98 -324.35 478.59 -329.17 492.2 C-337 514.3 -344.87 536.39 -352.79 558.45 C-353.56 560.59 -354.33 562.73 -355.1 564.87 C-355.29 565.4 -355.48 565.93 -355.67 566.47 C-358.94 575.56 -362.19 584.66 -365.43 593.76 C-365.9 595.06 -366.37 596.37 -366.83 597.68 C-368.86 603.37 -370.89 609.05 -372.92 614.74 C-373.74 617.05 -374.57 619.37 -375.39 621.68 C-375.77 622.75 -376.16 623.83 -376.54 624.9 C-377.06 626.37 -377.59 627.85 -378.11 629.32 C-378.41 630.14 -378.7 630.97 -379 631.82 C-379.91 634.29 -380.88 636.74 -381.88 639.19 C-384.73 636.7 -386.26 633.82 -387.88 630.46 C-388.02 630.18 -388.02 630.18 -388.73 628.74 C-389.64 626.87 -390.54 625 -391.44 623.12 C-391.75 622.48 -392.06 621.83 -392.38 621.17 C-398.41 608.6 -403.65 595.84 -408.33 582.71 C-408.86 581.22 -409.4 579.73 -409.94 578.24 C-422.29 544.11 -430.33 507.41 -432.88 471.19 C-432.92 470.66 -432.96 470.13 -433 469.59 C-433.86 458.16 -434.08 446.77 -434.06 435.31 C-434.06 434.41 -434.06 433.52 -434.06 432.59 C-434.03 417.7 -433.61 402.98 -431.88 388.19 C-431.81 387.65 -431.75 387.1 -431.68 386.54 C-428.47 359.27 -422.94 332.44 -414.88 306.19 C-414.72 305.69 -414.57 305.19 -414.41 304.68 C-398.71 253.67 -373.04 205.94 -339.88 164.19 C-339.49 163.71 -339.11 163.22 -338.72 162.73 C-337.59 161.31 -336.45 159.91 -335.31 158.5 C-335 158.11 -334.68 157.72 -334.36 157.31 C-333.69 156.5 -333 155.69 -332.3 154.89 C-331.19 153.56 -330.15 152.17 -329.13 150.76 C-323.54 143.31 -323.54 143.31 -318.91 142.26 C-315.43 141.81 -311.96 141.9 -308.45 141.98 C-307.11 141.98 -305.76 141.97 -304.41 141.96 C-300.72 141.94 -297.04 141.98 -293.35 142.03 C-289.37 142.07 -285.39 142.06 -281.41 142.05 C-274.52 142.04 -267.63 142.07 -260.73 142.13 C-250.77 142.21 -240.81 142.24 -230.84 142.25 C-214.68 142.27 -198.51 142.34 -182.34 142.43 C-166.64 142.52 -150.94 142.6 -135.24 142.64 C-134.75 142.64 -134.75 142.64 -132.3 142.65 C-127.44 142.66 -122.58 142.67 -117.73 142.68 C-77.44 142.79 -37.16 142.96 3.12 143.19 C3.12 139.56 3.12 135.93 3.12 132.19 C-100.5 132.19 -204.12 132.19 -310.88 132.19 C-307.06 127.74 -303.32 123.44 -299.19 119.31 C-298.67 118.8 -298.16 118.28 -297.63 117.75 C-293.92 114.1 -290.07 110.7 -285.97 107.48 C-283.49 105.53 -281.1 103.51 -278.76 101.39 C-273.96 97.07 -268.99 93.05 -263.81 89.19 C-263.6 89.03 -263.6 89.03 -262.54 88.24 C-229.92 63.93 -194.75 44.02 -156.88 29.19 C-155.97 28.83 -155.07 28.48 -154.14 28.11 C-116.56 13.5 -76.07 4.33 -35.88 1.19 C-35.34 1.15 -34.8 1.1 -34.25 1.06 C-22.83 0.18 -11.45 -0.01 0 0 Z M-179.77 233.18 C-181.44 234.7 -183.16 236.16 -184.88 237.62 C-192.98 244.72 -200.11 252.41 -206.79 260.84 C-207.82 262.11 -208.87 263.36 -209.95 264.59 C-249.66 310.64 -270.07 373.45 -270.12 433.75 C-270.13 434.47 -270.13 435.18 -270.13 435.92 C-270.04 495.74 -249.76 552.91 -200.88 615.08 C-199.36 616.75 -197.9 618.47 -196.44 620.19 C-189.34 628.29 -181.65 635.42 -173.22 642.1 C-171.95 643.13 -170.71 644.18 -169.47 645.26 C-123.42 684.98 -60.61 705.39 -0.31 705.44 C0.4 705.44 1.12 705.44 1.86 705.44 C61.67 705.35 118.85 685.07 181.02 636.2 C182.69 634.68 184.41 633.22 186.12 631.75 C194.23 624.66 201.36 616.97 208.04 608.53 C209.07 607.26 210.12 606.02 211.2 604.79 C250.91 558.73 271.32 495.93 271.38 435.62 C271.38 434.91 271.38 434.19 271.38 433.46 C271.29 373.64 251.01 316.46 202.13 254.29 C200.61 252.63 199.15 250.9 197.69 249.19 C190.59 241.08 182.9 233.95 174.47 227.27 C173.2 226.25 171.96 225.19 170.72 224.12 C124.67 184.4 61.86 163.99 1.56 163.94 C0.85 163.94 0.13 163.94 -0.61 163.94 C-60.42 164.02 -117.6 184.31 -179.77 233.18 Z " fill="#000000" transform="translate(639.875,205.8125)"/>
<path d="M0 0 C0.5 0.4 1 0.79 1.52 1.2 C16.44 13.08 30.51 26.88 41.75 42.31 C43.05 44.07 44.38 45.8 45.72 47.53 C85.8 99.9 102.85 169.7 94.41 234.81 C87.9 282.45 69.08 326.54 39 364 C38.6 364.5 38.21 365 37.8 365.52 C25.92 380.44 12.12 394.51 -3.31 405.75 C-5.07 407.05 -6.8 408.38 -8.53 409.72 C-60.9 449.8 -130.7 466.85 -195.81 458.41 C-243.45 451.9 -287.54 433.08 -325 403 C-325.5 402.6 -326 402.21 -326.52 401.8 C-341.44 389.92 -355.51 376.12 -366.75 360.69 C-368.05 358.93 -369.38 357.2 -370.72 355.47 C-410.8 303.1 -427.85 233.3 -419.41 168.19 C-412.9 120.55 -394.08 76.46 -364 39 C-363.6 38.5 -363.21 38 -362.8 37.48 C-350.92 22.56 -337.12 8.49 -321.69 -2.75 C-319.93 -4.05 -318.2 -5.38 -316.47 -6.72 C-262.11 -48.33 -188.81 -65.28 0 0 Z M-247 -24 C-248.12 -23.91 -249.25 -23.82 -250.38 -23.75 C-254.7 -23.13 -257.14 -21.2 -260 -18 C-264.37 -11.74 -264.6 -5.43 -264.61 1.94 C-264.62 3.07 -264.64 4.2 -264.66 5.33 C-264.7 8.29 -264.72 11.24 -264.74 14.19 C-264.76 17.21 -264.8 20.24 -264.84 23.26 C-264.91 29.17 -264.97 35.09 -265 41 C-265.47 41 -265.93 40.99 -266.41 40.99 C-277.8 40.88 -289.19 40.79 -300.57 40.74 C-306.08 40.72 -311.58 40.68 -317.09 40.62 C-321.89 40.57 -326.69 40.54 -331.5 40.53 C-334.04 40.52 -336.58 40.51 -339.12 40.47 C-341.96 40.43 -344.8 40.43 -347.65 40.43 C-348.48 40.41 -349.31 40.4 -350.17 40.38 C-356.2 40.43 -360.37 42.1 -365 46 C-368.07 49.77 -369.69 53.44 -369.4 58.36 C-368.71 61.19 -367.05 63.01 -365 65 C-364.34 65.66 -363.68 66.32 -363 67 C-362.01 67 -361.02 67 -360 67 C-360 67.66 -360 68.32 -360 69 C-355.35 70.15 -350.79 70.22 -346.02 70.32 C-345.11 70.34 -344.21 70.36 -343.28 70.38 C-340.27 70.45 -337.26 70.51 -334.25 70.56 C-333.99 70.57 -333.99 70.57 -332.69 70.59 C-325.96 70.72 -319.23 70.83 -312.5 70.92 C-309.4 70.96 -306.29 71.01 -303.19 71.06 C-296.07 71.18 -288.94 71.27 -281.82 71.33 C-278.67 71.35 -275.53 71.38 -272.38 71.43 C-269.4 71.48 -266.42 71.51 -263.43 71.51 C-262.34 71.52 -261.25 71.53 -260.15 71.56 C-252.27 71.73 -246.51 70.44 -240 66 C-236.06 61.71 -234.89 57.65 -234.79 51.89 C-234.78 51.38 -234.77 50.87 -234.76 50.35 C-234.73 48.68 -234.71 47 -234.68 45.33 C-234.66 44.17 -234.64 43.01 -234.62 41.85 C-234.57 38.79 -234.52 35.74 -234.47 32.69 C-234.42 29.57 -234.36 26.45 -234.31 23.34 C-234.2 17.23 -234.1 11.11 -234 5 C-232.88 4.83 -231.76 4.66 -230.64 4.5 C-230.01 4.41 -229.39 4.31 -228.74 4.22 C-226.8 3.97 -224.96 4 -223 4.12 C-218.8 4.15 -215.48 3.41 -212 1 C-208.77 -2.38 -206 -6.21 -206 -11 C-206.74 -13.79 -207.58 -16.48 -209 -19 C-209.66 -19 -210.32 -19 -211 -19 C-211.27 -19.62 -211.54 -20.24 -211.81 -20.88 C-213.43 -23.77 -214.87 -24.01 -218 -25 C-219.99 -25.17 -221.83 -25.26 -223.82 -25.23 C-224.09 -25.23 -224.09 -25.23 -225.45 -25.23 C-226.58 -25.23 -227.71 -25.22 -228.84 -25.21 C-230.56 -25.19 -232.28 -25.19 -234.01 -25.19 C-235.11 -25.18 -236.21 -25.17 -237.32 -25.17 C-237.83 -25.17 -238.34 -25.17 -238.86 -25.16 C-241.73 -25.13 -244.25 -24.78 -247 -24 Z M-121.94 -19.25 C-124.29 -16.03 -125.2 -12.98 -125 -9 C-124.52 -6.85 -123.85 -5.04 -123 -3 C-122.34 -3 -121.68 -3 -121 -3 C-121 -2.34 -121 -1.68 -121 -1 C-120.34 -1 -119.68 -1 -119 -1 C-118.89 -0.53 -118.78 -0.06 -118.66 0.43 C-118 2 -118 2 -115.43 3.15 C-111.7 4.22 -107.98 4.45 -104.12 4.62 C-103.44 4.66 -102.75 4.7 -102.04 4.74 C-100.36 4.84 -98.68 4.92 -97 5 C-97 5.65 -97 6.29 -97 6.96 C-96.98 13.08 -96.94 19.2 -96.87 25.32 C-96.83 28.46 -96.81 31.61 -96.8 34.75 C-96.8 37.79 -96.77 40.83 -96.73 43.88 C-96.71 45.03 -96.71 46.18 -96.71 47.34 C-96.74 54.6 -96.07 60.32 -91 66 C-83.11 72.75 -71.18 71.15 -61.42 71.13 C-60.1 71.13 -58.78 71.14 -57.45 71.14 C-53.94 71.14 -50.43 71.14 -46.92 71.13 C-44.75 71.12 -42.57 71.12 -40.4 71.12 C-6.95 71.07 -6.95 71.07 8.82 70.74 C10.34 70.7 11.86 70.68 13.39 70.65 C15.45 70.62 17.51 70.57 19.57 70.51 C20.15 70.51 20.72 70.5 21.31 70.49 C26.32 70.31 30.23 68.62 33.93 65.24 C36.59 61.84 38.49 59.32 38.12 54.88 C36.96 49.74 34.63 45.84 30.25 42.85 C24.55 39.76 17.97 40.55 11.69 40.69 C10.21 40.7 8.73 40.72 7.25 40.73 C2.89 40.78 -1.48 40.86 -5.84 40.94 C-9.33 41.01 -12.83 41.06 -16.32 41.12 C-33.21 41.38 -50.11 41.67 -67 42 C-67 41.69 -67 41.69 -66.97 40.12 C-66.89 34.23 -66.83 28.35 -66.79 22.47 C-66.77 19.44 -66.74 16.42 -66.7 13.39 C-66.65 10.47 -66.63 7.54 -66.62 4.62 C-66.61 3.51 -66.6 2.4 -66.58 1.29 C-66.43 -6.72 -67.58 -12.59 -72.57 -19.02 C-80.19 -25.65 -89.97 -25.34 -99.62 -25.31 C-100.12 -25.32 -100.12 -25.32 -102.61 -25.36 C-109.94 -25.37 -116.63 -24.74 -121.94 -19.25 Z M-227 118 C-229.6 121.65 -231.27 124.43 -231 129 C-231.66 129 -232.32 129 -233 129 C-234.78 136.31 -236.44 143.64 -238 151 C-238.18 151.82 -238.35 152.63 -238.53 153.47 C-243.62 178.37 -243.28 207.18 -238 232 C-237.91 232.44 -237.91 232.44 -237.46 234.69 C-232.03 261.63 -232.03 261.63 -223.31 268.19 C-219.78 270.35 -216.92 271.12 -212.78 271.14 C-211.92 271.15 -211.05 271.15 -210.17 271.16 C-209.23 271.16 -208.29 271.16 -207.32 271.16 C-206.31 271.17 -205.31 271.17 -204.3 271.18 C-201.58 271.19 -198.85 271.2 -196.13 271.2 C-194.42 271.2 -192.72 271.21 -191.01 271.21 C-185.67 271.23 -180.33 271.24 -174.99 271.24 C-168.84 271.24 -162.69 271.26 -156.54 271.29 C-151.77 271.31 -147.01 271.32 -142.25 271.32 C-139.41 271.32 -136.56 271.33 -133.72 271.35 C-131.05 271.36 -128.37 271.37 -125.7 271.36 C-124.26 271.36 -122.81 271.37 -121.37 271.38 C-114.95 271.34 -109.66 270.59 -104.93 265.98 C-100.35 259.31 -97.9 252.84 -96 245 C-95.93 244.73 -95.93 244.73 -95.6 243.39 C-94.74 239.95 -94.02 236.49 -93.37 233 C-93.12 231.64 -92.85 230.27 -92.58 228.91 C-90.12 216.36 -89.73 204.07 -89.75 191.31 C-89.75 190.53 -89.75 189.75 -89.75 188.94 C-89.78 178.82 -89.98 168.95 -92 159 C-92.26 157.42 -92.51 155.84 -92.76 154.26 C-94.23 145.26 -95.78 136.51 -99 127.94 C-99.24 127.3 -99.47 126.67 -99.72 126.01 C-101.92 120.52 -104.52 116.27 -110.06 113.75 C-110.73 113.44 -111.41 113.12 -112.1 112.8 C-115.2 111.5 -117.59 110.87 -120.99 110.86 C-121.8 110.85 -122.61 110.85 -123.44 110.84 C-123.88 110.84 -123.88 110.84 -126.12 110.84 C-126.58 110.84 -126.58 110.84 -128.95 110.82 C-131.51 110.81 -134.07 110.8 -136.63 110.8 C-138.23 110.8 -139.83 110.79 -141.43 110.79 C-146.46 110.77 -151.48 110.76 -156.5 110.76 C-162.28 110.76 -168.06 110.74 -173.84 110.71 C-178.32 110.69 -182.8 110.68 -187.27 110.68 C-189.94 110.68 -192.61 110.67 -195.28 110.65 C-198.27 110.63 -201.25 110.64 -204.24 110.64 C-204.67 110.64 -204.67 110.64 -206.88 110.62 C-214.26 110.67 -221.89 112.25 -227 118 Z M-335.52 126.66 C-338.72 131.38 -340.13 136.3 -341.42 141.78 C-342 144 -342 144 -343 145 C-344.46 145.11 -344.46 145.11 -346.35 145.1 C-346.71 145.1 -346.71 145.1 -348.5 145.09 C-348.88 145.08 -348.88 145.08 -350.84 145.06 C-351.64 145.06 -352.43 145.05 -353.25 145.05 C-356.67 145.03 -360.08 145.01 -363.49 144.98 C-389.91 144.79 -389.91 144.79 -396.37 150.26 C-399.36 153.44 -400.83 156.46 -401.12 160.82 C-400.85 164.92 -399.46 167.25 -396.4 169.94 C-392.08 173.22 -388.39 175.17 -382.9 175.02 C-382.08 175 -381.25 174.98 -380.41 174.96 C-379.53 174.93 -378.65 174.91 -377.74 174.88 C-376.83 174.86 -375.93 174.83 -374.99 174.81 C-372.1 174.73 -369.21 174.65 -366.31 174.56 C-364.35 174.51 -362.39 174.46 -360.43 174.4 C-355.62 174.28 -350.81 174.14 -346 174 C-346 185.55 -346 197.1 -346 209 C-349.19 208.97 -352.38 208.93 -355.67 208.89 C-358.22 208.88 -360.77 208.86 -363.33 208.84 C-366.02 208.83 -368.71 208.81 -371.4 208.77 C-373.99 208.74 -376.58 208.72 -379.18 208.72 C-380.64 208.71 -382.11 208.68 -383.57 208.66 C-388.65 208.66 -392 208.75 -396 212 C-398.69 214.93 -400.83 218.1 -401.2 222.12 C-400.8 226.31 -399.72 229.73 -397 233 C-392.34 236.27 -388.24 238.13 -382.53 238.11 C-381.63 238.11 -380.73 238.11 -379.8 238.11 C-379.31 238.11 -379.31 238.11 -376.86 238.1 C-375.86 238.1 -374.85 238.09 -373.85 238.09 C-371.21 238.09 -368.57 238.08 -365.93 238.07 C-363.24 238.06 -360.54 238.05 -357.85 238.05 C-352.57 238.04 -347.28 238.02 -342 238 C-341.9 238.43 -341.8 238.86 -341.7 239.3 C-341.23 241.26 -340.74 243.23 -340.25 245.19 C-340.09 245.86 -339.94 246.53 -339.77 247.23 C-338.49 252.3 -336.73 255.74 -332.61 259.14 C-328.25 261.38 -323.82 262.05 -319 261 C-314.91 258.61 -311.59 255.53 -310 251 C-309.4 245.42 -310.41 240.46 -311.94 235.12 C-314.69 225.41 -315.15 215.72 -315.39 205.66 C-315.41 204.6 -315.44 203.54 -315.46 202.48 C-315.52 200.27 -315.57 198.07 -315.61 195.86 C-315.67 193.06 -315.75 190.27 -315.82 187.47 C-315.88 185.29 -315.93 183.1 -315.98 180.92 C-316.01 179.39 -316.06 177.87 -316.1 176.35 C-316.21 169.97 -315.5 164.2 -314 158 C-313.64 156.46 -313.29 154.91 -312.93 153.37 C-312.4 151.11 -311.87 148.86 -311.32 146.61 C-308.46 134.23 -308.46 134.23 -311.25 129.25 C-314.42 125.17 -316.96 122.51 -322 121 C-327.29 120.61 -331.95 122.76 -335.52 126.66 Z M-18.44 127.06 C-21.79 131.22 -21.38 135.86 -21 141 C-20.34 144.5 -19.42 147.92 -18.53 151.37 C-15.47 164.03 -15.34 176.37 -15.54 189.33 C-15.57 191.66 -15.57 193.99 -15.58 196.31 C-15.6 210.29 -16.02 223.79 -19.62 237.38 C-22.6 248.57 -22.6 248.57 -19.75 253.75 C-19.46 254.12 -19.46 254.12 -18 256 C-17.74 256.37 -17.74 256.37 -16.44 258.25 C-13.7 260.84 -10.07 260.88 -6.46 261.09 C-2.93 260.96 -0.74 260.21 2 258 C2.44 257.65 2.88 257.31 3.33 256.95 C6.87 253.49 7.9 249.41 9.15 244.77 C9.33 244.12 9.51 243.47 9.69 242.8 C10.14 241.2 10.57 239.6 11 238 C11.26 238 11.26 238 12.57 238.03 C17.48 238.11 22.39 238.17 27.3 238.21 C29.83 238.23 32.35 238.26 34.87 238.3 C37.79 238.35 40.7 238.37 43.62 238.39 C44.06 238.4 44.06 238.4 46.31 238.45 C53.2 238.46 60.44 237.23 65.71 232.45 C68.59 229.21 69.76 226.39 70 222 C69.56 219.12 69.56 219.12 69 217 C68.34 217 67.68 217 67 217 C66.71 216.38 66.42 215.76 66.12 215.12 C64.77 212.56 63.56 212.2 61 211 C61 210.34 61 209.68 61 209 C45.82 208.67 30.64 208.34 15 208 C15 197.11 15 186.22 15 175 C17.79 175.03 20.59 175.07 23.47 175.11 C26.2 175.13 28.92 175.15 31.65 175.16 C33.54 175.18 35.42 175.2 37.31 175.23 C40.03 175.26 42.75 175.28 45.47 175.29 C45.89 175.3 45.89 175.3 47.99 175.34 C54.29 175.34 60 174.35 65.06 170.39 C69.89 164.43 69.89 164.43 70.16 160.54 C69.68 156 67.7 152.34 64.44 149.19 C54.7 142.27 39.57 144.94 28.34 145.27 C25.72 145.34 23.1 145.38 20.47 145.42 C19.67 145.45 18.86 145.48 18.03 145.52 C12.62 145.56 12.62 145.56 10.83 143.94 C9.2 141.31 8.48 138.46 7.94 135.44 C7.21 131.42 6.49 128.22 3.23 125.55 C-5.14 120.48 -10.9 119.96 -18.44 127.06 Z M-176.53 315.25 C-183.83 323.07 -183.44 334.07 -183.36 344.04 C-183.36 345.37 -183.36 346.71 -183.36 348.04 C-183.36 350.82 -183.35 353.6 -183.34 356.38 C-183.31 359.92 -183.31 363.46 -183.32 367 C-183.32 369.75 -183.32 372.5 -183.31 375.25 C-183.3 376.55 -183.3 377.86 -183.3 379.16 C-183.31 396.83 -183.31 396.83 -178.29 402.89 C-174.36 406.26 -171.25 407.52 -166.06 407.38 C-165.53 407.37 -165.01 407.36 -164.46 407.35 C-159.24 407.16 -156.44 405.74 -152.25 402.75 C-146.78 395.1 -147.85 382.91 -147.87 374.01 C-147.87 372.97 -147.87 371.93 -147.86 370.9 C-147.86 368.74 -147.86 366.58 -147.87 364.42 C-147.88 361.68 -147.87 358.95 -147.87 356.21 C-147.86 354.07 -147.86 351.94 -147.87 349.8 C-147.87 348.31 -147.86 346.82 -147.86 345.33 C-147.94 322.8 -147.94 322.8 -154.46 315.33 C-156.75 313.26 -158.18 312.07 -161.31 311.81 C-161.59 311.84 -161.59 311.84 -163 312 C-163.33 311.34 -163.66 310.68 -164 310 C-168.82 310 -172.82 312.22 -176.53 315.25 Z M-324.58 312.02 C-330.13 312.06 -335.68 312.11 -341.23 312.21 C-342.73 312.24 -344.23 312.26 -345.73 312.27 C-347.75 312.29 -349.76 312.34 -351.78 312.39 C-352.34 312.39 -352.89 312.39 -353.47 312.39 C-357.87 312.56 -360.57 314.35 -364 317 C-364.76 317.56 -365.53 318.11 -366.31 318.69 C-369.24 322.7 -369.39 327.12 -368.73 331.96 C-367.59 335.7 -365.49 337.71 -362.17 339.67 C-353.98 343.89 -344.04 342.61 -335.12 342.49 C-333.09 342.48 -331.07 342.47 -329.04 342.47 C-324.28 342.45 -319.51 342.41 -314.75 342.36 C-309.32 342.3 -303.89 342.28 -298.46 342.25 C-287.31 342.2 -276.15 342.11 -265 342 C-264.99 342.6 -264.98 343.21 -264.98 343.83 C-264.9 349.52 -264.81 355.21 -264.71 360.91 C-264.66 363.83 -264.62 366.76 -264.58 369.69 C-264.54 372.51 -264.49 375.34 -264.44 378.17 C-264.42 379.24 -264.41 380.32 -264.4 381.4 C-264.38 382.91 -264.35 384.42 -264.32 385.93 C-264.31 386.79 -264.29 387.65 -264.28 388.54 C-263.67 393.91 -261.19 398.6 -257 402 C-253.27 403.76 -249.87 404.43 -245.82 403.5 C-241.27 401.58 -238.52 398.8 -236.03 394.61 C-233.83 389.02 -234.29 382.98 -234.34 377.06 C-234.33 375.61 -234.33 374.16 -234.32 372.72 C-234.31 369.69 -234.32 366.66 -234.35 363.64 C-234.38 359.78 -234.36 355.92 -234.33 352.06 C-234.31 349.07 -234.32 346.08 -234.33 343.09 C-234.33 341.67 -234.33 340.25 -234.32 338.82 C-234.26 329.83 -234.74 323.54 -241.22 316.71 C-245.9 312.53 -251.48 311.7 -257.52 311.76 C-258.14 311.76 -258.77 311.75 -259.41 311.75 C-261.47 311.75 -263.54 311.76 -265.6 311.77 C-267.06 311.77 -268.52 311.77 -269.98 311.77 C-273.87 311.77 -277.77 311.78 -281.66 311.8 C-284.06 311.81 -286.46 311.82 -288.86 311.83 C-298.91 311.86 -308.96 311.91 -319 311.99 C-320.86 312 -322.72 312.01 -324.58 312.02 Z M-92 318 C-97.15 324.95 -96.62 332.67 -96.6 340.9 C-96.61 342.35 -96.62 343.8 -96.63 345.24 C-96.64 348.26 -96.64 351.29 -96.63 354.31 C-96.62 358.16 -96.65 362.01 -96.7 365.86 C-96.73 368.84 -96.73 371.83 -96.73 374.81 C-96.73 376.23 -96.74 377.65 -96.76 379.07 C-96.86 387.1 -96.6 392.77 -91.63 399.35 C-88.64 402.38 -85.67 403.73 -81.47 404.15 C-77.35 403.9 -74.65 401.45 -71.61 398.86 C-66.43 392.87 -66.6 387 -66.71 379.48 C-66.71 378.36 -66.72 377.25 -66.72 376.14 C-66.73 373.23 -66.76 370.32 -66.79 367.41 C-66.82 364.43 -66.84 361.46 -66.85 358.48 C-66.89 352.65 -66.94 346.83 -67 341 C-66.26 341.01 -65.52 341.03 -64.76 341.04 C-57.64 341.16 -50.53 341.28 -43.42 341.39 C-39.76 341.45 -36.11 341.51 -32.46 341.57 C-24.7 341.7 -16.95 341.82 -9.2 341.92 C-5.76 341.96 -2.33 342.01 1.1 342.07 C4.35 342.13 7.6 342.17 10.85 342.2 C12.05 342.21 13.24 342.23 14.44 342.26 C21.85 342.4 28.41 342.44 34.03 337.05 C36.85 332.87 38.44 330.07 37.88 324.94 C37.62 323.62 37.34 322.3 37 321 C36.34 321 35.68 321 35 321 C34.75 320.42 34.5 319.85 34.25 319.25 C32.5 316.1 30.19 314.61 27 313 C24.83 312.45 22.76 312.4 20.53 312.39 C19.88 312.37 19.23 312.36 18.56 312.34 C16.36 312.29 14.15 312.27 11.94 312.25 C10.34 312.22 8.74 312.2 7.13 312.17 C1.7 312.08 -3.72 312.04 -9.15 312.01 C-11.13 312 -13.1 311.98 -15.07 311.97 C-25.07 311.9 -35.08 311.85 -45.08 311.82 C-47.43 311.81 -49.79 311.8 -52.15 311.79 C-55.91 311.77 -59.67 311.77 -63.43 311.77 C-64.83 311.77 -66.24 311.77 -67.64 311.76 C-86.49 311.66 -86.49 311.66 -92 318 Z " fill="#000000" transform="translate(803,439)"/>
<path d="M0 0 C0.32 -0 0.32 -0 1.96 -0.02 C2.67 -0.01 3.38 -0.01 4.11 -0 C4.86 -0.01 5.61 -0.01 6.38 -0.02 C8.86 -0.02 11.34 -0.02 13.82 -0.01 C15.54 -0.01 17.26 -0.01 18.97 -0.02 C22.58 -0.02 26.18 -0.02 29.79 -0.01 C34.42 0 39.04 -0 43.67 -0.01 C47.22 -0.02 50.77 -0.02 54.32 -0.01 C56.03 -0.01 57.73 -0.01 59.44 -0.02 C61.82 -0.02 64.2 -0.02 66.59 -0 C67.3 -0.01 68.01 -0.01 68.74 -0.02 C69.38 -0.01 70.03 -0.01 70.7 0 C71.26 0 71.83 0 72.41 0 C73.85 0.25 73.85 0.25 75.85 2.25 C76.43 4.14 76.89 5.95 77.29 7.88 C77.41 8.48 77.54 9.08 77.66 9.7 C83.26 38.35 82.39 65.5 77.29 94.14 C77.15 94.92 77.01 95.71 76.87 96.51 C76.53 98.43 76.19 100.34 75.85 102.25 C65.58 102.43 55.32 102.6 45.05 102.75 C40.29 102.82 35.52 102.89 30.75 102.98 C26.16 103.06 21.56 103.13 16.96 103.19 C15.21 103.22 13.45 103.25 11.69 103.28 C9.24 103.33 6.78 103.36 4.33 103.39 C3.96 103.4 3.96 103.4 2.11 103.44 C1.44 103.45 0.78 103.45 0.09 103.46 C-0.49 103.47 -1.07 103.47 -1.67 103.48 C-3.15 103.25 -3.15 103.25 -5.15 101.25 C-5.66 99.38 -6.06 97.59 -6.4 95.69 C-6.51 95.13 -6.62 94.58 -6.72 94.01 C-6.95 92.84 -7.17 91.66 -7.38 90.49 C-7.71 88.72 -8.04 86.96 -8.38 85.19 C-10.45 74.27 -11.39 63.67 -11.4 52.57 C-11.4 51.93 -11.4 51.3 -11.4 50.65 C-11.38 0.02 -11.38 0.02 0 0 Z " fill="#000000" transform="translate(602.1502685546875,578.7460327148438)"/>
</svg>
