<?xml version='1.0' encoding='utf-8'?>
<svg xmlns="http://www.w3.org/2000/svg" viewBox="0 0 1280 1280" role="img" aria-labelledby="title desc">
  <title id="title">燕中校友会标准化会徽</title>
  <desc id="desc">深蓝色圆形会徽，顶部为燕中校友会，底部为 YAN ZHONG XIAO YOU HUI，中央为红金圆章与对称白色符号。</desc>
  <defs>
    <clipPath id="innerDisc">
      <circle cx="640" cy="640" r="438" />
    </clipPath>
  </defs>

  <circle cx="640" cy="640" r="620" fill="#263F78" />
  <circle cx="640" cy="640" r="610" fill="none" stroke="#1B3267" stroke-width="10" />
  <circle cx="640" cy="640" r="584" fill="none" stroke="#F8F5EA" stroke-width="10" />

  <g fill="#F8F5EA" stroke="#F8F5EA" stroke-width="12" stroke-linejoin="round" paint-order="stroke fill"><g transform="translate(178 404) rotate(-58) scale(0.26562500 -0.26562500) translate(-128 0)"><path d="M89 179Q89 191 88 204H108Q107 191 107 179H145Q145 190 144 205H164Q163 191 163 179H202Q217 179 236 180V164H163Q163 147 164 131H88Q89 146 89 164H52Q37 165 18 164V180Q37 179 51 179ZM154 77Q154 61 155 44H100Q101 61 101 77Q101 94 100 112H155Q154 93 154 77ZM189 121V104Q213 116 223 127Q228 119 236 110Q226 107 213.5 100.0Q201 93 189 88V71Q188 57 193.5 56.5Q199 56 207 56Q215 56 217.5 61.0Q220 66 221 78Q228 73 238 67Q233 48 226.5 44.5Q220 41 210.0 40.5Q200 40 189.5 40.5Q179 41 175.5 46.0Q172 51 173 60V109Q173 122 172 138H190Q189 128 189 121ZM76 107V65Q76 49 77 34H58Q60 48 60 58Q52 54 43.5 49.5Q35 45 22 38Q18 48 12 55Q35 61 60 73V99Q36 99 21 98V114Q36 113 60 113Q60 123 59 136H77Q76 121 76 107ZM238 -15 220 -24Q211 -2 195 20Q203 25 211 29Q230 1 238 -15ZM38 -27Q27 -22 20 -20Q24 -12 30.0 1.5Q36 15 41 26Q48 23 59 20Q54 10 49.5 0.5Q45 -9 38 -27ZM172 -17Q162 -18 154 -22Q152 -6 140 20Q147 22 157 25Q162 13 165.0 5.5Q168 -2 172 -17ZM114 -19Q104 -20 96 -23Q94 -11 91.5 -2.0Q89 7 85 17Q93 18 103 22Q111 -5 114 -19ZM145 145V164H107V145ZM137 59V96H118V59Z" /></g><g transform="translate(350 214) rotate(-31) scale(0.26562500 -0.26562500) translate(-128 0)"><path d="M139 208Q138 180 138 155H225Q224 135 224 100Q224 66 225 49H203V64H138V21Q138 9 139 -24H115Q117 -6 117 18V64H52V49H30Q31 64 31 100Q31 137 30 155H117Q117 182 116 208ZM203 80V139H138V80ZM117 80V139H52V80Z" /></g><g transform="translate(640 156) scale(0.26562500 -0.26562500) translate(-128 0)"><path d="M49 205H70Q69 192 69 153Q81 153 95 154V136Q82 137 69 137V99Q76 104 84 108Q95 89 104 75Q94 70 85 64Q79 80 69 97V19Q69 -1 70 -22H49Q50 -1 50 19V93Q41 63 25 32Q17 44 8 51Q34 85 46 137Q31 137 14 136V154Q31 153 50 153Q50 192 49 205ZM168 40Q183 57 194 92Q203 86 216 84Q209 72 202.5 58.0Q196 44 181 26Q190 16 207.0 8.0Q224 0 248 -4Q235 -14 232 -24Q211 -17 194.5 -8.0Q178 1 168 12Q155 1 141.0 -7.0Q127 -15 99 -26Q93 -15 84 -8Q114 0 128.5 8.0Q143 16 155 26Q136 49 125 81Q134 83 142 89Q155 55 168 40ZM206 171Q226 171 244 172V154Q228 155 206 155H135Q115 155 100 154V172Q115 171 135 171ZM120 87Q112 94 102 99Q128 122 140 143L161 130Q154 125 141.0 110.5Q128 96 120 87ZM244 106Q234 98 226 90Q216 104 187 128Q196 134 201 141Q231 117 244 106ZM185 182Q176 179 165 173Q162 186 152 202L169 210Q177 199 185 182Z" /></g><g transform="translate(930 214) rotate(31) scale(0.26562500 -0.26562500) translate(-128 0)"><path d="M9 14Q26 24 40.0 38.0Q54 52 65.5 69.0Q77 86 85.0 106.5Q93 127 97 150H62Q41 150 22 149V168Q41 167 58 167H99Q101 193 100 206Q119 204 125 204Q123 193 122.5 185.5Q122 178 121 167H202Q221 167 234 168V149Q222 150 203 150H119Q116 133 110 115H204Q197 87 184.5 63.5Q172 40 161 28Q173 19 193.0 12.0Q213 5 241 1Q233 -10 229 -20Q202 -13 180.5 -4.0Q159 5 146 14Q134 5 112.0 -6.0Q90 -17 64 -25Q61 -16 51 -5Q77 0 96.5 8.0Q116 16 131 26Q122 34 113.0 45.0Q104 56 93 75Q86 62 73.0 45.0Q60 28 49.5 17.5Q39 7 28 -2Q21 7 9 14ZM146 40Q167 63 178 99H105L103 94Q124 60 146 40Z" /></g><g transform="translate(1102 404) rotate(58) scale(0.26562500 -0.26562500) translate(-128 0)"><path d="M73 2Q139 4 175 6Q166 16 148 32Q155 38 162 45Q176 32 189.0 19.5Q202 7 219 -11Q212 -17 202 -26Q193 -13 187 -8Q164 -9 112.5 -12.0Q61 -15 46 -19Q41 -6 38 1Q54 6 76.0 26.5Q98 47 107 60H78Q51 60 28 59V76Q52 75 77 75H177Q202 75 226 76V59Q202 60 173 60H113Q121 52 128 48Q121 43 73 2ZM245 117Q236 109 231 99Q163 130 128 179Q81 126 25 94Q15 108 8 111Q45 124 78.5 154.0Q112 184 124 209Q133 203 145 198L139 192Q174 142 245 117ZM146 121Q168 121 182 122V104Q167 105 146 105H103Q84 105 71 104V122Q84 121 102 121Z" /></g></g><circle cx="108" cy="598" r="9" fill="#F8F5EA" />
  <circle cx="1172" cy="598" r="9" fill="#F8F5EA" />

  <circle cx="640" cy="640" r="454" fill="#263F78" stroke="#F8F5EA" stroke-width="12" />
  <circle cx="640" cy="640" r="438" fill="none" stroke="#7E0B18" stroke-width="12" />

  <g fill="#F8F5EA"><g transform="translate(184 862) rotate(58) scale(0.02343750 -0.02343750) translate(-2102.5 0)"><path d="M1314 1348Q1297 1347 1260.0 1334.5Q1223 1322 1207 1310Q1168 1286 1154.0 1273.0Q1140 1260 1100 1205Q1022 1095 956.0 982.0Q890 869 791 695Q754 631 742.0 592.0Q730 553 730 479V208Q730 172 744.5 145.5Q759 119 794 103Q815 95 869.0 83.5Q923 72 956 71V0H292V71Q320 73 376.0 78.5Q432 84 454 93Q490 108 503.5 134.0Q517 160 517 198V543Q517 559 497.5 601.5Q478 644 451 696Q391 812 318.0 947.0Q245 1082 191 1178Q158 1235 132.5 1264.0Q107 1293 74 1315Q50 1330 16.5 1338.0Q-17 1346 -44 1348V1419H561V1348Q459 1346 417.0 1334.0Q375 1322 375 1300Q375 1294 381.0 1279.0Q387 1264 398 1241Q411 1215 429.0 1181.5Q447 1148 463 1117Q510 1028 559.0 939.5Q608 851 687 709Q844 962 926.5 1103.5Q1009 1245 1009 1273Q1009 1296 992.0 1310.0Q975 1324 947 1332Q918 1340 884.0 1342.5Q850 1345 821 1348V1419H1314Z" /><path d="M1421 0H830V71Q908 76 959.5 91.0Q1011 106 1011 128Q1011 137 1009.0 150.0Q1007 163 1003 173L885 491H388Q360 421 342.5 369.0Q325 317 311 273Q298 230 293.0 203.0Q288 176 288 159Q288 119 351.0 97.0Q414 75 493 71V0H-41V71Q-15 73 24.0 82.5Q63 92 88 108Q128 135 150.0 164.5Q172 194 193 246Q300 513 429.0 846.0Q558 1179 659 1439H739L1212 215Q1227 176 1246.0 152.0Q1265 128 1299 105Q1322 91 1359.0 81.5Q1396 72 1421 71ZM849 580 634 1130 423 580Z" transform="translate(1260 0)" /><path d="M1554 1348Q1526 1347 1468.0 1332.0Q1410 1317 1385 1301Q1349 1276 1336.5 1205.0Q1324 1134 1324 1025V-14H1237L377 1147V415Q377 292 392.5 226.0Q408 160 440 132Q463 110 535.0 91.0Q607 72 630 71V0H48V71Q75 73 139.0 90.5Q203 108 219 122Q254 150 267.0 207.5Q280 265 280 404V1103Q280 1149 264.0 1195.0Q248 1241 221 1266Q185 1299 123.5 1322.5Q62 1346 24 1348V1419H429L1227 337V1012Q1227 1136 1211.0 1202.5Q1195 1269 1165 1291Q1137 1310 1073.5 1328.0Q1010 1346 977 1348V1419H1554Z" transform="translate(2634 0)" /></g><g transform="translate(352 1060) rotate(31) scale(0.02343750 -0.02343750) translate(-3740.5 0)"><path d="M1214 443 1167 0H27V35L920 1340H593Q536 1340 497.5 1338.0Q459 1336 427 1330Q361 1317 278.5 1221.0Q196 1125 154 1018H84L127 1419H1190V1384L297 79H634Q719 79 815.0 91.0Q911 103 940 132Q1005 194 1061.0 284.0Q1117 374 1144 443Z" /><path d="M1567 0H978V71Q1002 73 1047.5 77.0Q1093 81 1110 89Q1140 101 1154.0 125.5Q1168 150 1168 189V694H501V200Q501 165 512.5 141.0Q524 117 558 99Q575 90 618.5 81.0Q662 72 687 71V0H98V71Q122 73 167.5 77.0Q213 81 230 89Q260 101 274.0 125.5Q288 150 288 189V1213Q288 1245 275.0 1271.5Q262 1298 230 1313Q203 1326 164.5 1336.0Q126 1346 98 1348V1419H687V1348Q659 1347 618.5 1339.0Q578 1331 558 1324Q524 1312 512.5 1284.0Q501 1256 501 1223V783H1168V1213Q1168 1245 1155.0 1271.5Q1142 1298 1110 1313Q1083 1326 1044.5 1336.0Q1006 1346 978 1348V1419H1567V1348Q1539 1347 1498.5 1339.0Q1458 1331 1438 1324Q1404 1312 1392.5 1284.0Q1381 1256 1381 1223V200Q1381 165 1392.5 141.0Q1404 117 1438 99Q1455 90 1498.5 81.0Q1542 72 1567 71Z" transform="translate(1232 0)" /><path d="M1244 1251Q1338 1153 1391.0 1014.5Q1444 876 1444 708Q1444 539 1390.0 401.0Q1336 263 1240 166Q1147 70 1024.0 18.0Q901 -34 762 -34Q614 -34 488.5 21.5Q363 77 273 176Q183 273 131.5 411.5Q80 550 80 708Q80 881 134.0 1016.5Q188 1152 283 1251Q377 1349 501.5 1401.0Q626 1453 762 1453Q903 1453 1028.0 1400.0Q1153 1347 1244 1251ZM1095 245Q1151 336 1176.5 451.0Q1202 566 1202 708Q1202 854 1173.5 976.0Q1145 1098 1090 1184Q1035 1269 952.0 1316.5Q869 1364 762 1364Q642 1364 558.0 1309.0Q474 1254 421 1162Q371 1074 346.5 956.0Q322 838 322 708Q322 564 348.0 448.0Q374 332 430 242Q484 154 566.0 104.5Q648 55 762 55Q869 55 955.0 105.0Q1041 155 1095 245Z" transform="translate(2901 0)" /><path d="M1554 1348Q1526 1347 1468.0 1332.0Q1410 1317 1385 1301Q1349 1276 1336.5 1205.0Q1324 1134 1324 1025V-14H1237L377 1147V415Q377 292 392.5 226.0Q408 160 440 132Q463 110 535.0 91.0Q607 72 630 71V0H48V71Q75 73 139.0 90.5Q203 108 219 122Q254 150 267.0 207.5Q280 265 280 404V1103Q280 1149 264.0 1195.0Q248 1241 221 1266Q185 1299 123.5 1322.5Q62 1346 24 1348V1419H429L1227 337V1012Q1227 1136 1211.0 1202.5Q1195 1269 1165 1291Q1137 1310 1073.5 1328.0Q1010 1346 977 1348V1419H1554Z" transform="translate(4425 0)" /><path d="M1471 567Q1447 564 1406.5 557.5Q1366 551 1341 539Q1311 524 1298.5 496.5Q1286 469 1286 432V322Q1286 202 1287.5 160.0Q1289 118 1291 91Q1158 31 1026.0 -1.0Q894 -33 767 -33Q631 -33 505.0 18.0Q379 69 285 163Q190 258 134.0 394.0Q78 530 78 698Q78 860 131.5 998.5Q185 1137 283 1239Q378 1339 509.5 1394.5Q641 1450 791 1450Q911 1450 1000.0 1421.0Q1089 1392 1157 1351L1198 1419H1278L1287 923H1205Q1184 1005 1153.0 1084.5Q1122 1164 1073 1227Q1024 1290 953.5 1327.5Q883 1365 785 1365Q678 1365 594.0 1321.5Q510 1278 448 1192Q387 1109 354.0 985.0Q321 861 321 708Q321 573 353.5 453.5Q386 334 448 247Q510 158 603.0 107.0Q696 56 814 56Q902 56 974.5 83.0Q1047 110 1077 140Q1085 192 1085.5 245.0Q1086 298 1086 335V413Q1086 455 1074.5 487.5Q1063 520 1027 535Q994 550 937.5 557.5Q881 565 849 567V640H1471Z" transform="translate(5996 0)" /></g><g transform="translate(640 1152) scale(0.02343750 -0.02343750) translate(-2575.5 0)"><path d="M1457 0H793V71Q875 73 925.5 86.5Q976 100 976 128Q976 143 953.0 190.0Q930 237 894 295Q854 359 799.0 445.5Q744 532 690 611Q602 495 490.0 331.5Q378 168 378 139Q378 106 408.5 90.5Q439 75 543 71V0H13V71Q39 73 79.5 78.5Q120 84 146 97Q198 125 229.5 157.5Q261 190 293 234Q357 322 457.0 453.5Q557 585 634 693Q576 778 486.0 908.5Q396 1039 294 1188Q251 1251 226.5 1277.0Q202 1303 161 1322Q137 1333 94.5 1339.5Q52 1346 27 1348V1419H684V1348Q626 1346 563.5 1333.5Q501 1321 501 1295Q501 1276 526.0 1228.5Q551 1181 585 1127Q620 1071 663.0 1003.0Q706 935 768 846Q881 999 963.0 1122.0Q1045 1245 1045 1282Q1045 1314 1007.5 1329.0Q970 1344 881 1348V1419H1410V1348Q1385 1347 1344.5 1340.5Q1304 1334 1277 1322Q1225 1297 1199.5 1268.0Q1174 1239 1131 1184Q1051 1081 983.5 990.5Q916 900 821 770Q901 656 999.5 511.0Q1098 366 1188 234Q1219 189 1259.0 148.5Q1299 108 1324 93Q1348 79 1388.5 75.5Q1429 72 1457 71Z" /><path d="M718 0H79V71Q106 73 157.0 77.0Q208 81 229 89Q262 102 277.0 124.5Q292 147 292 187V1215Q292 1250 281.0 1273.5Q270 1297 229 1313Q199 1325 153.5 1335.5Q108 1346 79 1348V1419H718V1348Q687 1347 644.0 1340.5Q601 1334 569 1324Q531 1312 518.0 1285.0Q505 1258 505 1225V198Q505 165 519.5 139.5Q534 114 569 99Q590 91 637.5 81.5Q685 72 718 71Z" transform="translate(1455 0)" /><path d="M1421 0H830V71Q908 76 959.5 91.0Q1011 106 1011 128Q1011 137 1009.0 150.0Q1007 163 1003 173L885 491H388Q360 421 342.5 369.0Q325 317 311 273Q298 230 293.0 203.0Q288 176 288 159Q288 119 351.0 97.0Q414 75 493 71V0H-41V71Q-15 73 24.0 82.5Q63 92 88 108Q128 135 150.0 164.5Q172 194 193 246Q300 513 429.0 846.0Q558 1179 659 1439H739L1212 215Q1227 176 1246.0 152.0Q1265 128 1299 105Q1322 91 1359.0 81.5Q1396 72 1421 71ZM849 580 634 1130 423 580Z" transform="translate(2253 0)" /><path d="M1244 1251Q1338 1153 1391.0 1014.5Q1444 876 1444 708Q1444 539 1390.0 401.0Q1336 263 1240 166Q1147 70 1024.0 18.0Q901 -34 762 -34Q614 -34 488.5 21.5Q363 77 273 176Q183 273 131.5 411.5Q80 550 80 708Q80 881 134.0 1016.5Q188 1152 283 1251Q377 1349 501.5 1401.0Q626 1453 762 1453Q903 1453 1028.0 1400.0Q1153 1347 1244 1251ZM1095 245Q1151 336 1176.5 451.0Q1202 566 1202 708Q1202 854 1173.5 976.0Q1145 1098 1090 1184Q1035 1269 952.0 1316.5Q869 1364 762 1364Q642 1364 558.0 1309.0Q474 1254 421 1162Q371 1074 346.5 956.0Q322 838 322 708Q322 564 348.0 448.0Q374 332 430 242Q484 154 566.0 104.5Q648 55 762 55Q869 55 955.0 105.0Q1041 155 1095 245Z" transform="translate(3627 0)" /></g><g transform="translate(928 1060) rotate(-31) scale(0.02343750 -0.02343750) translate(-2166.5 0)"><path d="M1314 1348Q1297 1347 1260.0 1334.5Q1223 1322 1207 1310Q1168 1286 1154.0 1273.0Q1140 1260 1100 1205Q1022 1095 956.0 982.0Q890 869 791 695Q754 631 742.0 592.0Q730 553 730 479V208Q730 172 744.5 145.5Q759 119 794 103Q815 95 869.0 83.5Q923 72 956 71V0H292V71Q320 73 376.0 78.5Q432 84 454 93Q490 108 503.5 134.0Q517 160 517 198V543Q517 559 497.5 601.5Q478 644 451 696Q391 812 318.0 947.0Q245 1082 191 1178Q158 1235 132.5 1264.0Q107 1293 74 1315Q50 1330 16.5 1338.0Q-17 1346 -44 1348V1419H561V1348Q459 1346 417.0 1334.0Q375 1322 375 1300Q375 1294 381.0 1279.0Q387 1264 398 1241Q411 1215 429.0 1181.5Q447 1148 463 1117Q510 1028 559.0 939.5Q608 851 687 709Q844 962 926.5 1103.5Q1009 1245 1009 1273Q1009 1296 992.0 1310.0Q975 1324 947 1332Q918 1340 884.0 1342.5Q850 1345 821 1348V1419H1314Z" /><path d="M1244 1251Q1338 1153 1391.0 1014.5Q1444 876 1444 708Q1444 539 1390.0 401.0Q1336 263 1240 166Q1147 70 1024.0 18.0Q901 -34 762 -34Q614 -34 488.5 21.5Q363 77 273 176Q183 273 131.5 411.5Q80 550 80 708Q80 881 134.0 1016.5Q188 1152 283 1251Q377 1349 501.5 1401.0Q626 1453 762 1453Q903 1453 1028.0 1400.0Q1153 1347 1244 1251ZM1095 245Q1151 336 1176.5 451.0Q1202 566 1202 708Q1202 854 1173.5 976.0Q1145 1098 1090 1184Q1035 1269 952.0 1316.5Q869 1364 762 1364Q642 1364 558.0 1309.0Q474 1254 421 1162Q371 1074 346.5 956.0Q322 838 322 708Q322 564 348.0 448.0Q374 332 430 242Q484 154 566.0 104.5Q648 55 762 55Q869 55 955.0 105.0Q1041 155 1095 245Z" transform="translate(1260 0)" /><path d="M1533 1348Q1505 1347 1451.0 1336.0Q1397 1325 1363 1303Q1329 1280 1316.0 1208.0Q1303 1136 1303 1032V415Q1303 297 1254.0 210.0Q1205 123 1125 67Q1046 13 958.5 -10.5Q871 -34 791 -34Q663 -34 563.0 -0.5Q463 33 395 90Q328 147 294.0 220.5Q260 294 260 374V1213Q260 1248 248.5 1271.5Q237 1295 202 1315Q177 1329 138.0 1337.5Q99 1346 74 1348V1419H665V1348Q637 1347 594.5 1339.0Q552 1331 532 1324Q498 1312 486.5 1284.0Q475 1256 475 1223V439Q475 382 487.5 319.5Q500 257 537 203Q576 148 643.0 113.0Q710 78 827 78Q937 78 1011.5 113.0Q1086 148 1129 205Q1170 259 1187.0 318.0Q1204 377 1204 437V1019Q1204 1130 1188.0 1200.5Q1172 1271 1141 1293Q1106 1318 1045.5 1332.0Q985 1346 953 1348V1419H1533Z" transform="translate(2784 0)" /></g><g transform="translate(1096 862) rotate(-58) scale(0.02343750 -0.02343750) translate(-2008 0)"><path d="M1567 0H978V71Q1002 73 1047.5 77.0Q1093 81 1110 89Q1140 101 1154.0 125.5Q1168 150 1168 189V694H501V200Q501 165 512.5 141.0Q524 117 558 99Q575 90 618.5 81.0Q662 72 687 71V0H98V71Q122 73 167.5 77.0Q213 81 230 89Q260 101 274.0 125.5Q288 150 288 189V1213Q288 1245 275.0 1271.5Q262 1298 230 1313Q203 1326 164.5 1336.0Q126 1346 98 1348V1419H687V1348Q659 1347 618.5 1339.0Q578 1331 558 1324Q524 1312 512.5 1284.0Q501 1256 501 1223V783H1168V1213Q1168 1245 1155.0 1271.5Q1142 1298 1110 1313Q1083 1326 1044.5 1336.0Q1006 1346 978 1348V1419H1567V1348Q1539 1347 1498.5 1339.0Q1458 1331 1438 1324Q1404 1312 1392.5 1284.0Q1381 1256 1381 1223V200Q1381 165 1392.5 141.0Q1404 117 1438 99Q1455 90 1498.5 81.0Q1542 72 1567 71Z" /><path d="M1533 1348Q1505 1347 1451.0 1336.0Q1397 1325 1363 1303Q1329 1280 1316.0 1208.0Q1303 1136 1303 1032V415Q1303 297 1254.0 210.0Q1205 123 1125 67Q1046 13 958.5 -10.5Q871 -34 791 -34Q663 -34 563.0 -0.5Q463 33 395 90Q328 147 294.0 220.5Q260 294 260 374V1213Q260 1248 248.5 1271.5Q237 1295 202 1315Q177 1329 138.0 1337.5Q99 1346 74 1348V1419H665V1348Q637 1347 594.5 1339.0Q552 1331 532 1324Q498 1312 486.5 1284.0Q475 1256 475 1223V439Q475 382 487.5 319.5Q500 257 537 203Q576 148 643.0 113.0Q710 78 827 78Q937 78 1011.5 113.0Q1086 148 1129 205Q1170 259 1187.0 318.0Q1204 377 1204 437V1019Q1204 1130 1188.0 1200.5Q1172 1271 1141 1293Q1106 1318 1045.5 1332.0Q985 1346 953 1348V1419H1533Z" transform="translate(1669 0)" /><path d="M718 0H79V71Q106 73 157.0 77.0Q208 81 229 89Q262 102 277.0 124.5Q292 147 292 187V1215Q292 1250 281.0 1273.5Q270 1297 229 1313Q199 1325 153.5 1335.5Q108 1346 79 1348V1419H718V1348Q687 1347 644.0 1340.5Q601 1334 569 1324Q531 1312 518.0 1285.0Q505 1258 505 1225V198Q505 165 519.5 139.5Q534 114 569 99Q590 91 637.5 81.5Q685 72 718 71Z" transform="translate(3218 0)" /></g></g><g clip-path="url(#innerDisc)" fill="none" stroke-linecap="round" stroke-linejoin="round">
    <g stroke="#7E0B18" stroke-width="20">
      <path d="M 295 346 H 650" />
      <path d="M 796 214 L 932 555" />
      <path d="M 1084 646 L 804 873" />
      <path d="M 758 1070 L 466 862" />
      <path d="M 252 870 L 374 536" />
    </g>
    <g stroke="#F8F5EA" stroke-width="7">
      <path d="M 295 346 H 650" />
      <path d="M 796 214 L 932 555" />
      <path d="M 1084 646 L 804 873" />
      <path d="M 758 1070 L 466 862" />
      <path d="M 252 870 L 374 536" />
    </g>
  </g>

  <circle cx="640" cy="640" r="278" fill="#7E0B18" stroke="#B18A3D" stroke-width="16" />

  <g fill="none" stroke="#F8F5EA" stroke-width="36" stroke-linecap="round" stroke-linejoin="round">
    <path d="M 456 492 H 548 V 434 H 584" />
    <path d="M 696 434 H 732 V 492 H 824" />

    <path d="M 430 598 H 486 M 448 658 H 486 M 482 578 V 680" />
    <path d="M 794 578 V 680 M 794 598 H 850 M 794 658 H 832" />

    <rect x="574" y="566" width="132" height="142" rx="24" />

    <path d="M 456 780 H 548 V 842" />
    <path d="M 640 780 V 842" />
    <path d="M 824 780 H 732 V 842" />
  </g>
</svg>